<?xml version="1.0" encoding="UTF-8"?>
<svg version="1.1" xmlns="http://www.w3.org/2000/svg" width="512" height="512">
<path d="M0 0 C168.96 0 337.92 0 512 0 C512 168.96 512 337.92 512 512 C343.04 512 174.08 512 0 512 C0 343.04 0 174.08 0 0 Z " fill="#0C1B3A" transform="translate(0,0)"/>
<path d="M0 0 C2.875 0.875 2.875 0.875 4.875 2.875 C4.875 8.485 4.875 14.095 4.875 19.875 C46.125 19.875 87.375 19.875 129.875 19.875 C129.875 14.595 129.875 9.315 129.875 3.875 C131.195 2.555 132.515 1.235 133.875 -0.125 C137.5735004 0.02294002 139.23305573 0.23305573 141.875 2.875 C142.02017744 5.7843558 142.06130796 8.594946 142 11.5 C141.99097656 12.30179688 141.98195313 13.10359375 141.97265625 13.9296875 C141.94906223 15.91158523 141.91319065 17.89332981 141.875 19.875 C142.56948242 19.84881592 143.26396484 19.82263184 143.97949219 19.7956543 C171.79223149 18.88410169 171.79223149 18.88410169 183.8125 28.625 C191.19858011 35.74346851 194.86582538 44.42739965 195.11550903 54.67138672 C195.12124013 56.46581677 195.11614179 58.26030363 195.10205078 60.0546875 C195.10234283 61.04096634 195.10263489 62.02724518 195.10293579 63.04341125 C195.10155081 66.27903268 195.08602883 69.51441917 195.0703125 72.75 C195.06657942 75.00300979 195.06373384 77.25602121 195.06173706 79.5090332 C195.05412389 85.42076143 195.03449532 91.3323904 195.0123291 97.24407959 C194.99182071 103.28379982 194.98272468 109.32353619 194.97265625 115.36328125 C194.95124722 127.20056429 194.9171393 139.03777387 194.875 150.875 C194.215 151.205 193.555 151.535 192.875 151.875 C192.49320449 154.21934778 192.49320449 154.21934778 192.875 156.875 C194.82461378 158.87560652 194.82461378 158.87560652 197.4375 160.5625 C207.93545916 168.44710582 213.90965542 180.26500104 216.875 192.875 C217.33358212 196.42818184 217.44708817 199.91945666 217.4375 203.5 C217.43508301 204.45350342 217.43266602 205.40700684 217.43017578 206.3894043 C217.00322104 223.02808176 209.27163921 236.22337085 197.4375 247.58203125 C184.74513208 258.93937876 169.46529625 261.59825033 152.88378906 261.00683594 C148.54717599 260.72222594 144.84118264 259.58870248 140.875 257.875 C139.91207031 257.4728125 138.94914063 257.070625 137.95703125 256.65625 C131.25023308 253.59611395 126.13141883 249.84600654 120.8359375 244.73046875 C119.00673572 242.82007634 119.00673572 242.82007634 116.875 241.875 C117.205 242.865 117.535 243.855 117.875 244.875 C117.4375 247.0625 117.4375 247.0625 116.875 248.875 C97.50745103 248.96860283 78.13994822 249.03905718 58.77221966 249.08224869 C49.77865202 249.10283978 40.78522525 249.13089406 31.79174805 249.17675781 C23.94946993 249.21673164 16.10729389 249.24245789 8.26491672 249.25135398 C4.11562223 249.25655095 -0.03338037 249.26869294 -4.18258095 249.29792023 C-8.09536134 249.32525645 -12.00773216 249.33340866 -15.92059898 249.32743073 C-17.34956469 249.32852289 -18.77854542 249.33636796 -20.20742798 249.3518219 C-32.48116252 249.47795288 -42.17322136 247.72015579 -51.1875 239.01171875 C-60.84980685 228.35590857 -61.57109488 216.88435896 -61.52905273 203.13110352 C-61.53476236 201.44158478 -61.54172891 199.7520699 -61.54985046 198.06256104 C-61.56773112 193.49433037 -61.56662316 188.92629233 -61.56090808 184.35803723 C-61.55780897 180.53607943 -61.56391667 176.71415824 -61.56994683 172.89220566 C-61.5839736 163.87203491 -61.58244604 154.85195892 -61.57104492 145.83178711 C-61.5595642 136.54371258 -61.57364282 127.25592681 -61.6004414 117.96789032 C-61.62263179 109.97609067 -61.62922829 101.98438144 -61.62336498 93.99255317 C-61.62000236 89.22700102 -61.62236429 84.46163395 -61.63961601 79.69610786 C-61.65513652 75.213553 -61.65107328 70.73142445 -61.63231087 66.24888611 C-61.62863914 64.60988379 -61.63169189 62.97084952 -61.64219666 61.33187675 C-61.72054121 48.09113834 -59.91221161 38.92326156 -50.49609375 29.07421875 C-43.81940263 22.88150524 -36.85668379 19.59184111 -27.6328125 19.6796875 C-25.83457031 19.68935547 -25.83457031 19.68935547 -24 19.69921875 C-22.14375 19.72435547 -22.14375 19.72435547 -20.25 19.75 C-18.98929688 19.75902344 -17.72859375 19.76804688 -16.4296875 19.77734375 C-13.3279296 19.80084192 -10.22656348 19.83369666 -7.125 19.875 C-7.17140625 18.76640625 -7.2178125 17.6578125 -7.265625 16.515625 C-7.30315102 15.05211032 -7.33955029 13.58856644 -7.375 12.125 C-7.40851563 11.39539063 -7.44203125 10.66578125 -7.4765625 9.9140625 C-7.54158516 6.33781618 -7.42490637 4.29075003 -5.3046875 1.3515625 C-3.125 -0.125 -3.125 -0.125 0 0 Z " fill="#0F1D3B" transform="translate(189.125,125.125)"/>
<path d="M0 0 C2.875 0.875 2.875 0.875 4.875 2.875 C4.875 8.485 4.875 14.095 4.875 19.875 C46.125 19.875 87.375 19.875 129.875 19.875 C129.875 14.595 129.875 9.315 129.875 3.875 C131.195 2.555 132.515 1.235 133.875 -0.125 C137.5735004 0.02294002 139.23305573 0.23305573 141.875 2.875 C142.02017744 5.7843558 142.06130796 8.594946 142 11.5 C141.99097656 12.30179688 141.98195313 13.10359375 141.97265625 13.9296875 C141.94906223 15.91158523 141.91319065 17.89332981 141.875 19.875 C142.56948242 19.84881592 143.26396484 19.82263184 143.97949219 19.7956543 C171.79223149 18.88410169 171.79223149 18.88410169 183.8125 28.625 C191.18429699 35.72970289 194.86398249 44.40626972 195.11550903 54.63342285 C195.12123882 56.40990853 195.1161448 58.18645161 195.10205078 59.96289062 C195.10234283 60.93941589 195.10263489 61.91594116 195.10293579 62.92205811 C195.10155097 66.12521488 195.08602977 69.32813424 195.0703125 72.53125 C195.06657936 74.76183953 195.06373381 76.9924307 195.06173706 79.22302246 C195.05412435 85.07556741 195.03449617 90.92801207 195.0123291 96.78051758 C194.99181973 102.75991459 194.98272447 108.7393279 194.97265625 114.71875 C194.95124803 126.4375439 194.91714067 138.15626359 194.875 149.875 C191.1377488 148.65822054 187.5308378 147.33733512 183.875 145.875 C183.875 127.395 183.875 108.915 183.875 89.875 C106.655 89.875 29.435 89.875 -50.125 89.875 C-50.021875 110.995 -49.91875 132.115 -49.8125 153.875 C-49.78760498 160.536875 -49.76270996 167.19875 -49.73706055 174.0625 C-49.70048429 180.04859695 -49.70048429 180.04859695 -49.6599884 186.03466797 C-49.64386705 188.69527253 -49.63245518 191.35550002 -49.62788391 194.01611328 C-49.6206238 198.05261214 -49.58977981 202.08862472 -49.55737305 206.125 C-49.55951199 207.89460083 -49.55951199 207.89460083 -49.56169415 209.69995117 C-49.47653993 217.13655746 -49.03626504 223.44036147 -44.0390625 229.3359375 C-43.28367188 229.96757812 -42.52828125 230.59921875 -41.75 231.25 C-40.99976563 231.89710938 -40.24953125 232.54421875 -39.4765625 233.2109375 C-35.15247389 236.27084073 -31.53181571 237.12480392 -26.26934814 237.08618164 C-25.09749969 237.08289352 -23.92565125 237.07960541 -22.71829224 237.07621765 C-21.44130463 237.06266739 -20.16431702 237.04911713 -18.84863281 237.03515625 C-17.48320997 237.0280794 -16.11778149 237.02202769 -14.75234985 237.016922 C-11.81618642 237.00471708 -8.8801201 236.98715618 -5.94400787 236.96600342 C-1.29523408 236.93446376 3.35338881 236.92666266 8.0022583 236.92431641 C8.78794528 236.9238028 9.57363225 236.92328918 10.38312793 236.92276001 C11.98953499 236.92171858 13.59594208 236.92071431 15.20234919 236.9197464 C26.0205895 236.91185925 36.83830866 236.88667632 47.65625 236.80322266 C54.96002537 236.74706222 62.26296526 236.72653194 69.5669415 236.74642277 C73.42832601 236.75548534 77.28775235 236.74646865 81.1488266 236.69363403 C84.78423507 236.64410901 88.416724 236.64161751 92.05229568 236.67410851 C94.0104519 236.67949335 95.96855213 236.63544261 97.92617798 236.58955383 C103.17078099 236.67497656 106.53697393 236.80930772 110.72641754 240.14605713 C116.875 246.85898941 116.875 246.85898941 116.875 248.875 C97.50745103 248.96860283 78.13994822 249.03905718 58.77221966 249.08224869 C49.77865202 249.10283978 40.78522525 249.13089406 31.79174805 249.17675781 C23.94946993 249.21673164 16.10729389 249.24245789 8.26491672 249.25135398 C4.11562223 249.25655095 -0.03338037 249.26869294 -4.18258095 249.29792023 C-8.09536134 249.32525645 -12.00773216 249.33340866 -15.92059898 249.32743073 C-17.34956469 249.32852289 -18.77854542 249.33636796 -20.20742798 249.3518219 C-32.48116252 249.47795288 -42.17322136 247.72015579 -51.1875 239.01171875 C-60.84980685 228.35590857 -61.57109488 216.88435896 -61.52905273 203.13110352 C-61.53476236 201.44158478 -61.54172891 199.7520699 -61.54985046 198.06256104 C-61.56773112 193.49433037 -61.56662316 188.92629233 -61.56090808 184.35803723 C-61.55780897 180.53607943 -61.56391667 176.71415824 -61.56994683 172.89220566 C-61.5839736 163.87203491 -61.58244604 154.85195892 -61.57104492 145.83178711 C-61.5595642 136.54371258 -61.57364282 127.25592681 -61.6004414 117.96789032 C-61.62263179 109.97609067 -61.62922829 101.98438144 -61.62336498 93.99255317 C-61.62000236 89.22700102 -61.62236429 84.46163395 -61.63961601 79.69610786 C-61.65513652 75.213553 -61.65107328 70.73142445 -61.63231087 66.24888611 C-61.62863914 64.60988379 -61.63169189 62.97084952 -61.64219666 61.33187675 C-61.72054121 48.09113834 -59.91221161 38.92326156 -50.49609375 29.07421875 C-43.81940263 22.88150524 -36.85668379 19.59184111 -27.6328125 19.6796875 C-25.83457031 19.68935547 -25.83457031 19.68935547 -24 19.69921875 C-22.14375 19.72435547 -22.14375 19.72435547 -20.25 19.75 C-18.98929688 19.75902344 -17.72859375 19.76804688 -16.4296875 19.77734375 C-13.3279296 19.80084192 -10.22656348 19.83369666 -7.125 19.875 C-7.17140625 18.76640625 -7.2178125 17.6578125 -7.265625 16.515625 C-7.30315102 15.05211032 -7.33955029 13.58856644 -7.375 12.125 C-7.40851563 11.39539063 -7.44203125 10.66578125 -7.4765625 9.9140625 C-7.54158516 6.33781618 -7.42490637 4.29075003 -5.3046875 1.3515625 C-3.125 -0.125 -3.125 -0.125 0 0 Z " fill="#F6F7F9" transform="translate(189.125,125.125)"/>
<path d="M0 0 C41.25 0 82.5 0 125 0 C125.33 4.29 125.66 8.58 126 13 C126.99 13.99 127.98 14.98 129 16 C132.83266292 15.85909916 132.83266292 15.85909916 136 14 C136.23527773 11.65012738 136.41386417 9.29443961 136.5625 6.9375 C136.64628906 5.64714844 136.73007812 4.35679687 136.81640625 3.02734375 C136.87699219 2.02832031 136.93757812 1.02929688 137 0 C140.31232698 -0.08834684 143.62434435 -0.14083584 146.9375 -0.1875 C147.86369141 -0.21263672 148.78988281 -0.23777344 149.74414062 -0.26367188 C157.68102641 -0.34721804 165.20780721 0.68412599 171.3125 6.1875 C171.92738281 6.71730469 172.54226563 7.24710938 173.17578125 7.79296875 C183.53348571 20.3242386 179 29.97501209 179 48 C101.78 48 24.56 48 -55 48 C-55 13.2 -55 13.2 -48 6 C-42.42004706 1.8150353 -38.79257291 0.86866386 -31.921875 0.90234375 C-30.76171875 0.90556641 -29.6015625 0.90878906 -28.40625 0.91210938 C-26.59640625 0.92467773 -26.59640625 0.92467773 -24.75 0.9375 C-22.91695312 0.94426758 -22.91695312 0.94426758 -21.046875 0.95117188 C-18.03120054 0.96295185 -15.01562502 0.97940147 -12 1 C-11.94392578 2.24716797 -11.94392578 2.24716797 -11.88671875 3.51953125 C-11.82097656 4.60621094 -11.75523437 5.69289062 -11.6875 6.8125 C-11.62949219 7.89144531 -11.57148438 8.97039062 -11.51171875 10.08203125 C-11.2269638 12.98464033 -11.2269638 12.98464033 -9.6171875 14.8671875 C-7.32198294 16.47493948 -5.73446195 16.35057204 -3 16 C0.62053326 12.8160871 0.62053326 12.8160871 0 0 Z " fill="#111F3E" transform="translate(194,156)"/>
<path d="M0 0 C4.56031375 3.57068554 7.96054882 7.27403137 11 12.1875 C11.69222656 13.25291016 11.69222656 13.25291016 12.3984375 14.33984375 C18.6791141 24.66847087 19.20206447 35.97590801 16.875 47.625 C13.76941773 59.81834605 7.17168988 69.89620391 -3.515625 76.81640625 C-5.97040536 78.10941163 -8.41432684 79.18422619 -11 80.1875 C-11.75539063 80.50460937 -12.51078125 80.82171875 -13.2890625 81.1484375 C-23.71342038 84.94862148 -35.99220191 84.49220305 -46.26171875 80.50390625 C-58.49489739 74.62290596 -67.30197481 65.54549685 -72.125 52.8515625 C-73.9032307 47.43748511 -74.21484275 42.67350099 -74.25 37 C-74.270625 36.18724609 -74.29125 35.37449219 -74.3125 34.53710938 C-74.38779409 22.70652555 -69.30758416 12.4834226 -61.25 3.9375 C-56.93962773 -0.12656528 -52.27279254 -3.13861942 -47 -5.8125 C-46.33871094 -6.15410156 -45.67742187 -6.49570312 -44.99609375 -6.84765625 C-30.33436799 -13.01648411 -12.53842637 -8.55583065 0 0 Z " fill="#0F1D3B" transform="translate(378,291.8125)"/>
<path d="M0 0 C0.74636719 -0.01675781 1.49273437 -0.03351563 2.26171875 -0.05078125 C14.42992457 0.2505267 27.82238726 9.75401257 36 18 C45.35721909 29.26721324 50.60185064 41.93016015 50.5625 56.625 C50.56008301 57.57850342 50.55766602 58.53200684 50.55517578 59.5144043 C50.12822104 76.15308176 42.39663921 89.34837085 30.5625 100.70703125 C17.87013208 112.06437876 2.59029625 114.72325033 -13.99121094 114.13183594 C-18.32782401 113.84722594 -22.03381736 112.71370248 -26 111 C-26.96292969 110.5978125 -27.92585938 110.195625 -28.91796875 109.78125 C-43.5236189 103.11707503 -55.32751611 90.49748704 -60.97265625 75.3984375 C-65.28577733 60.83413097 -64.16377448 44.98675422 -57.71484375 31.265625 C-50.23142921 17.8413382 -38.50393136 7.15695337 -24 2 C-16.05917058 -0.21604542 -8.190424 -0.28387862 0 0 Z M-44.20703125 29.59765625 C-52.49414853 40.70131012 -53.08205822 52.61058344 -52 66 C-50.63573993 72.70113236 -48.30823948 78.64381038 -44 84 C-43.37222656 84.78117187 -42.74445313 85.56234375 -42.09765625 86.3671875 C-33.79114005 96.20654061 -24.25801554 102.11075624 -11.33984375 103.3515625 C0.63963512 103.96483634 12.95391343 101.59540252 22.30859375 93.57421875 C22.86675781 93.05472656 23.42492187 92.53523438 24 92 C24.58910156 91.51144531 25.17820312 91.02289063 25.78515625 90.51953125 C34.2767561 82.96107424 39.09319531 72.21750989 40 61 C40.10441406 59.77023437 40.10441406 59.77023437 40.2109375 58.515625 C40.74013698 45.73342209 35.9338749 35.9896561 28.75 25.8125 C18.99141232 15.83212624 6.83357165 10.57387043 -7.0625 10.375 C-22.72475911 10.59971434 -34.22640056 17.9436264 -44.20703125 29.59765625 Z " fill="#F2F4F6" transform="translate(356,272)"/>
<path d="M0 0 C2 2 2 2 2.41259766 4.80297852 C1.87175499 8.99370914 0.42749166 10.25283786 -2.6015625 13.15234375 C-3.07564545 13.61556534 -3.54972839 14.07878693 -4.03817749 14.55604553 C-5.55355016 16.03137326 -7.0880196 17.48472779 -8.625 18.9375 C-10.13266128 20.38739741 -11.63602762 21.84161011 -13.13812256 23.29727173 C-14.57254314 24.68673393 -16.01132672 26.07168745 -17.45019531 27.45654297 C-19.62551324 29.62644551 -21.62883699 31.82682433 -23.5859375 34.19140625 C-24.38257813 35.11824219 -25.17921875 36.04507813 -26 37 C-26.66 37 -27.32 37 -28 37 C-28.268125 37.61875 -28.53625 38.2375 -28.8125 38.875 C-30 41 -30 41 -33 43 C-39.29433842 42.61147624 -42.61204535 38.04816383 -46.8125 33.8125 C-47.60076172 33.05646484 -48.38902344 32.30042969 -49.20117188 31.52148438 C-49.94560547 30.77833984 -50.69003906 30.03519531 -51.45703125 29.26953125 C-52.13741455 28.59510986 -52.81779785 27.92068848 -53.51879883 27.22583008 C-55.45814706 24.31153342 -55.39321456 22.4332124 -55 19 C-53.3125 17.0625 -53.3125 17.0625 -51 16 C-45.96627445 16.18962665 -43.4424017 19.08162381 -40.1875 22.5625 C-39.68541016 23.08263672 -39.18332031 23.60277344 -38.66601562 24.13867188 C-37.43470873 25.4168857 -36.2160593 26.70727147 -35 28 C-30.62368886 24.43321512 -26.63685755 20.6653695 -22.71484375 16.6015625 C-22.24704498 16.11878845 -21.77924622 15.6360144 -21.29727173 15.13861084 C-19.34533027 13.12374356 -17.39456949 11.10856297 -15.4675293 9.06982422 C-14.04288878 7.56642038 -12.59980523 6.08296324 -11.15234375 4.6015625 C-10.30663818 3.71807129 -9.46093262 2.83458008 -8.58959961 1.92431641 C-5.44463886 -0.41268563 -3.83442752 -0.56442666 0 0 Z " fill="#F4F6F8" transform="translate(374,309)"/>
<path d="M0 0 C0.80695313 -0.00708984 1.61390625 -0.01417969 2.4453125 -0.02148438 C5.74016514 0.01385645 8.430027 0.22639889 11.53125 1.375 C14.0292541 4.88283554 13.57503544 8.6886476 13.5 12.875 C13.51546875 13.73416016 13.5309375 14.59332031 13.546875 15.47851562 C13.52371362 19.21039369 13.4042913 21.73106547 11.53125 25.00390625 C7.72864136 27.15754417 4.29781839 27.01988629 0 26.9375 C-0.80695313 26.95296875 -1.61390625 26.9684375 -2.4453125 26.984375 C-6.04906915 26.96058783 -8.37971557 26.79741813 -11.53125 24.96875 C-13.7344506 21.1717447 -13.58270073 17.75172121 -13.5 13.4375 C-13.51546875 12.63054687 -13.5309375 11.82359375 -13.546875 10.9921875 C-13.52307948 7.38716651 -13.35842674 5.05616743 -11.53125 1.90234375 C-7.73224478 -0.29615464 -4.31144039 -0.10675292 0 0 Z " fill="#F6F7F8" transform="translate(226,289.5625)"/>
<path d="M0 0 C1.21042969 -0.0299707 1.21042969 -0.0299707 2.4453125 -0.06054688 C6.05334631 -0.05756995 8.37226636 0.07422822 11.53125 1.90234375 C13.73269613 5.7021803 13.58273512 9.12148477 13.5 13.4375 C13.51546875 14.24445313 13.5309375 15.05140625 13.546875 15.8828125 C13.52308783 19.48656915 13.35991813 21.81721557 11.53125 24.96875 C7.7342447 27.1719506 4.31422121 27.02020073 0 26.9375 C-0.80695313 26.95296875 -1.61390625 26.9684375 -2.4453125 26.984375 C-6.02682884 26.96073463 -8.38264001 26.78714678 -11.53125 25.00390625 C-13.79434051 21.04951672 -13.58060059 17.35169125 -13.5 12.875 C-13.51546875 12.01197266 -13.5309375 11.14894531 -13.546875 10.25976562 C-13.50890996 4.15213952 -13.50890996 4.15213952 -11.53125 1.375 C-7.6879881 -0.04843033 -4.06713012 -0.03573357 0 0 Z " fill="#F3F5F6" transform="translate(273,289.5625)"/>
<path d="M0 0 C0.75925781 -0.00322266 1.51851562 -0.00644531 2.30078125 -0.00976562 C9.37771443 0.05840098 9.37771443 0.05840098 12.5 2.3125 C14.19933426 5.71116852 13.81049701 9.44046249 13.875 13.1875 C13.91238281 14.00347656 13.94976562 14.81945312 13.98828125 15.66015625 C14.04689026 19.65208101 14.02581272 21.63999689 11.51171875 24.85546875 C7.51869791 26.78724148 4.31433544 26.86646515 -0.0625 26.75 C-0.81724609 26.75708984 -1.57199219 26.76417969 -2.34960938 26.77148438 C-6.74073477 26.72118955 -9.34746499 26.41336116 -12.5 23.3125 C-13.01757812 21.18359375 -13.01757812 21.18359375 -13.03125 18.75 C-13.03640625 17.87085938 -13.0415625 16.99171875 -13.046875 16.0859375 C-13.03140625 15.17070312 -13.0159375 14.25546875 -13 13.3125 C-13.01546875 12.39726562 -13.0309375 11.48203125 -13.046875 10.5390625 C-13.04171875 9.65992188 -13.0365625 8.78078125 -13.03125 7.875 C-13.02673828 7.07191406 -13.02222656 6.26882813 -13.01757812 5.44140625 C-12.5 3.3125 -12.5 3.3125 -10.71484375 1.55004883 C-7.29015195 -0.36350526 -3.81436085 -0.08094993 0 0 Z " fill="#F3F5F7" transform="translate(179.5,289.6875)"/>
<path d="M0 0 C0.91523438 -0.01998047 1.83046875 -0.03996094 2.7734375 -0.06054688 C3.65257812 -0.05990234 4.53171875 -0.05925781 5.4375 -0.05859375 C6.24058594 -0.06044678 7.04367187 -0.0622998 7.87109375 -0.06420898 C10 0.4375 10 0.4375 11.75585938 2.20678711 C13.79736442 5.86715437 13.51312622 9.3289916 13.5 13.4375 C13.52835937 14.24445313 13.55671875 15.05140625 13.5859375 15.8828125 C13.59898801 19.83711816 13.5046079 21.79760583 11.00390625 24.96875 C7.02047598 26.91643502 3.81425126 27.02766483 -0.5625 26.9375 C-1.69461914 26.96070313 -1.69461914 26.96070313 -2.84960938 26.984375 C-6.17631355 26.96092686 -8.59680937 26.66870463 -11.5 25.00390625 C-13.80802004 21.05502821 -13.54189415 17.36394843 -13.4375 12.875 C-13.44458984 12.01197266 -13.45167969 11.14894531 -13.45898438 10.25976562 C-13.39567922 3.99255542 -13.39567922 3.99255542 -11.75805664 1.6953125 C-8.33203812 -0.75585364 -4.06443685 -0.03148507 0 0 Z " fill="#F2F4F6" transform="translate(273,241.5625)"/>
<path d="M0 0 C1.20462891 0.00277954 1.20462891 0.00277954 2.43359375 0.00561523 C3.31273437 0.0049707 4.191875 0.00432617 5.09765625 0.00366211 C6.47050781 0.03363281 6.47050781 0.03363281 7.87109375 0.06420898 C8.78632813 0.05711914 9.7015625 0.0500293 10.64453125 0.04272461 C17.3191723 0.10633922 17.3191723 0.10633922 19.62695312 1.75952148 C21.99175704 5.07098944 21.38284128 9.00672415 21.37109375 12.93920898 C21.39945313 13.79836914 21.4278125 14.6575293 21.45703125 15.54272461 C21.46968784 19.62131217 21.43142701 21.78237705 18.875 25.06420898 C14.89749784 26.96761704 11.66604976 27.12779418 7.30859375 27.06420898 C6.55384766 27.08805664 5.79910156 27.1119043 5.02148438 27.13647461 C1.34240726 27.12675018 -0.72955438 26.82119048 -3.62890625 24.50170898 C-5.62252321 20.51447507 -5.68334963 17.33401669 -5.56640625 12.93920898 C-5.57349609 12.18446289 -5.58058594 11.4297168 -5.58789062 10.65209961 C-5.5333716 5.89216927 -5.29028063 1.24673471 0 0 Z " fill="#F3F5F7" transform="translate(218.12890625,241.498291015625)"/>
<path d="M0 0 C1.28874023 -0.0299707 1.28874023 -0.0299707 2.60351562 -0.06054688 C6.33756006 -0.05765002 8.84780657 0.02894812 12.125 1.90234375 C14.28169218 5.70585795 14.18341821 9.13517055 14.125 13.4375 C14.14884766 14.24445313 14.17269531 15.05140625 14.19726562 15.8828125 C14.18748844 19.83279537 14.06172235 21.80567171 11.5625 24.96875 C7.58130247 26.91787796 4.37530302 27.027635 0 26.9375 C-1.13211914 26.96070313 -1.13211914 26.96070313 -2.28710938 26.984375 C-5.61381355 26.96092686 -8.03430937 26.66870463 -10.9375 25.00390625 C-13.24552004 21.05502821 -12.97939415 17.36394843 -12.875 12.875 C-12.88208984 12.01197266 -12.88917969 11.14894531 -12.89648438 10.25976562 C-12.83310748 3.98545322 -12.83310748 3.98545322 -11.1796875 1.6953125 C-7.87969253 -0.68719508 -3.9294346 -0.03228064 0 0 Z " fill="#F2F4F6" transform="translate(179.4375,241.5625)"/>
<path d="M0 0 C2.23838626 2.91259899 4.29617277 5.88905178 6.25 9 C7.06210937 10.2684375 7.06210937 10.2684375 7.890625 11.5625 C9 14 9 14 8.671875 16.3125 C8.33929688 17.1478125 8.33929688 17.1478125 8 18 C5 18 5 18 3.359375 16.64453125 C1.75202109 14.81480071 0.28060486 13.07397622 -1 11 C-0.8125 8.25 -0.8125 8.25 0 6 C-0.33 5.01 -0.66 4.02 -1 3 C-0.67 2.01 -0.34 1.02 0 0 Z " fill="#1E2942" transform="translate(298,353)"/>
<path d="M0 0 C1.32 0 2.64 0 4 0 C4 0.66 4 1.32 4 2 C4.99 2.33 5.98 2.66 7 3 C6.34 4.65 5.68 6.3 5 8 C4.67 8 4.34 8 4 8 C3.67 12.95 3.34 17.9 3 23 C9.93 23 16.86 23 24 23 C24 23.33 24 23.66 24 24 C16.74 24 9.48 24 2 24 C1.6875 15.6875 1.6875 15.6875 1.61206055 13.08081055 C1.57894775 12.39801025 1.54583496 11.71520996 1.51171875 11.01171875 C1.48553467 10.31522217 1.45935059 9.61872559 1.43237305 8.90112305 C0.88776232 6.50649641 -0.15829162 5.56727453 -2 4 C-1.34 4 -0.68 4 0 4 C-0.33 3.01 -0.66 2.02 -1 1 C-0.67 0.67 -0.34 0.34 0 0 Z " fill="#2E3951" transform="translate(329,121)"/>
<path d="M0 0 C1.6274637 0.61855631 3.25190356 1.24507305 4.875 1.875 C5.77992188 2.22304688 6.68484375 2.57109375 7.6171875 2.9296875 C10 4 10 4 12 6 C11.01 6.495 11.01 6.495 10 7 C9.34 8.32 8.68 9.64 8 11 C4.37 9.35 0.74 7.7 -3 6 C-3 5.34 -3 4.68 -3 4 C-2.34 3.67 -1.68 3.34 -1 3 C-0.67 2.01 -0.34 1.02 0 0 Z " fill="#111D38" transform="translate(372,270)"/>
<path d="M0 0 C0.33 0 0.66 0 1 0 C1.37198253 5.08376128 0.58339427 8.58322914 -2 13 C-5.5625 14.6875 -5.5625 14.6875 -9 16 C-10.4818964 18.0351761 -10.4818964 18.0351761 -11 20 C-11.66 20 -12.32 20 -13 20 C-12.67 21.32 -12.34 22.64 -12 24 C-12.99 24 -13.98 24 -15 24 C-15.69677734 22.21850586 -15.69677734 22.21850586 -16 20 C-14.75244141 18.24829102 -14.75244141 18.24829102 -12.8515625 16.50390625 C-12.17609375 15.86259766 -11.500625 15.22128906 -10.8046875 14.56054688 C-9.72574219 13.57151367 -9.72574219 13.57151367 -8.625 12.5625 C-7.21226776 11.26109721 -5.80822654 9.95018148 -4.4140625 8.62890625 C-3.46974365 7.7637439 -3.46974365 7.7637439 -2.50634766 6.88110352 C-0.69535263 4.6195611 -0.35846828 2.84301376 0 0 Z " fill="#354056" transform="translate(376,312)"/>
<path d="M0 0 C1.98 0.66 3.96 1.32 6 2 C4.84826645 4.46800047 3.95216435 6.04783565 2 8 C-2.455 6.02 -2.455 6.02 -7 4 C-5.68 3.67 -4.36 3.34 -3 3 C-2.01 2.67 -1.02 2.34 0 2 C0 1.34 0 0.68 0 0 Z " fill="#28344A" transform="translate(378,273)"/>
<path d="M0 0 C-1.4919551 4.32666979 -4.04108822 5.05935697 -8 7 C-10.81356892 9.56197123 -10.81356892 9.56197123 -13 12 C-13.66 11.67 -14.32 11.34 -15 11 C-4.55617978 0 -4.55617978 0 0 0 Z " fill="#232D46" transform="translate(329,288)"/>
<path d="M0 0 C2.32472205 2.85306797 3.7508258 5.54074837 5 9 C3.02 9.66 1.04 10.32 -1 11 C-0.814375 10.236875 -0.62875 9.47375 -0.4375 8.6875 C0.22819173 5.91032625 0.22819173 5.91032625 -1 3 C-0.67 2.01 -0.34 1.02 0 0 Z " fill="#212C47" transform="translate(298,353)"/>
<path d="M0 0 C0.99 0.33 1.98 0.66 3 1 C2.51917969 1.51046875 2.03835938 2.0209375 1.54296875 2.546875 C-0.51737494 5.82256066 -0.50960774 8.40752719 -0.6875 12.25 C-0.75324219 13.51328125 -0.81898438 14.7765625 -0.88671875 16.078125 C-0.92410156 17.04234375 -0.96148437 18.0065625 -1 19 C-1.33 19 -1.66 19 -2 19 C-2.05394705 16.39555652 -2.09364469 13.79223002 -2.125 11.1875 C-2.14175781 10.44951172 -2.15851563 9.71152344 -2.17578125 8.95117188 C-2.21074628 5.08753574 -2.19397555 3.29096332 0 0 Z " fill="#CED3E0" transform="translate(321,126)"/>
<path d="M0 0 C0.66 0.33 1.32 0.66 2 1 C1.68289062 1.48984375 1.36578125 1.9796875 1.0390625 2.484375 C-0.41373615 6.001677 -0.46584752 9.49665393 -0.625 13.25 C-0.66367188 13.99507813 -0.70234375 14.74015625 -0.7421875 15.5078125 C-0.83605108 17.3381524 -0.91909718 19.16904143 -1 21 C-1.33 21 -1.66 21 -2 21 C-2.05390357 18.06225537 -2.0936255 15.12549768 -2.125 12.1875 C-2.14175781 11.35412109 -2.15851563 10.52074219 -2.17578125 9.66210938 C-2.18222656 8.85966797 -2.18867188 8.05722656 -2.1953125 7.23046875 C-2.20578613 6.49207764 -2.21625977 5.75368652 -2.22705078 4.99291992 C-2 3 -2 3 0 0 Z " fill="#C4CAD7" transform="translate(215,291)"/>
<path d="M0 0 C0.33 0.66 0.66 1.32 1 2 C0.236875 2.28875 -0.52625 2.5775 -1.3125 2.875 C-4.15029308 3.96269013 -4.15029308 3.96269013 -7 6 C-7 4.35 -7 2.7 -7 1 C-3.375 -1.125 -3.375 -1.125 0 0 Z " fill="#253047" transform="translate(371,307)"/>
<path d="M0 0 C0.75 1.6875 0.75 1.6875 1 4 C-0.8125 6.75 -0.8125 6.75 -3 9 C-3.66 9 -4.32 9 -5 9 C-3.7508258 5.54074837 -2.32472205 2.85306797 0 0 Z " fill="#2A344A" transform="translate(146,162)"/>
<path d="M0 0 C1.9375 0.625 1.9375 0.625 4 2 C4.75 5.125 4.75 5.125 5 8 C5.66 8 6.32 8 7 8 C6.67 8.99 6.34 9.98 6 11 C0 3.28571429 0 3.28571429 0 0 Z " fill="#DCE2E8" transform="translate(296,348)"/>
<path d="M0 0 C0.99 0.33 1.98 0.66 3 1 C-0.465 3.97 -0.465 3.97 -4 7 C-4.33 5.35 -4.66 3.7 -5 2 C-3.68 2.33 -2.36 2.66 -1 3 C-0.67 2.01 -0.34 1.02 0 0 Z " fill="#2E374D" transform="translate(343,331)"/>
<path d="M0 0 C1.32 0.33 2.64 0.66 4 1 C4 1.66 4 2.32 4 3 C1.69 4.32 -0.62 5.64 -3 7 C-2.38722388 4.03824877 -1.74627478 2.61941217 0 0 Z " fill="#1A243D" transform="translate(143,146)"/>
<path d="M0 0 C-0.57344937 2.86724686 -0.8614515 3.8614515 -3 6 C-3.99 4.02 -4.98 2.04 -6 0 C-2.25 -1.125 -2.25 -1.125 0 0 Z " fill="#182541" transform="translate(399,291)"/>
<path d="M0 0 C0.66 0 1.32 0 2 0 C1.67 2.97 1.34 5.94 1 9 C0.34 8.67 -0.32 8.34 -1 8 C-0.67 5.36 -0.34 2.72 0 0 Z " fill="#DFE7EB" transform="translate(404,334)"/>
<path d="M0 0 C0.66 0.99 1.32 1.98 2 3 C-0.97 5.475 -0.97 5.475 -4 8 C-4.66 7.67 -5.32 7.34 -6 7 C-4.625 5 -4.625 5 -3 3 C-2.34 3 -1.68 3 -1 3 C-0.67 2.01 -0.34 1.02 0 0 Z " fill="#364054" transform="translate(354,338)"/>
<path d="M0 0 C2.31 0.66 4.62 1.32 7 2 C7 2.99 7 3.98 7 5 C6.01 5.495 6.01 5.495 5 6 C5 5.34 5 4.68 5 4 C2.525 3.01 2.525 3.01 0 2 C0 1.34 0 0.68 0 0 Z " fill="#1E2940" transform="translate(280,288)"/>
<path d="M0 0 C-0.33 1.65 -0.66 3.3 -1 5 C-2.32 4.34 -3.64 3.68 -5 3 C-5 2.34 -5 1.68 -5 1 C-2 0 -2 0 0 0 Z " fill="#101D38" transform="translate(303,362)"/>
<path d="M0 0 C0.66 1.32 1.32 2.64 2 4 C1.34 4 0.68 4 0 4 C0.33 5.98 0.66 7.96 1 10 C-1.12508244 6.81237635 -1.5020163 4.73487777 -2 1 C-1.34 0.67 -0.68 0.34 0 0 Z " fill="#2C3650" transform="translate(404,305)"/>
<path d="M0 0 C-0.66 1.32 -1.32 2.64 -2 4 C-3.98 3.34 -5.96 2.68 -8 2 C-4.77208445 -0.1519437 -3.71599191 -0.20086443 0 0 Z " fill="#232F48" transform="translate(370,146)"/>
<path d="M0 0 C0.99 0.66 1.98 1.32 3 2 C0.03 4.475 0.03 4.475 -3 7 C-2.25 2.25 -2.25 2.25 0 0 Z " fill="#2E3950" transform="translate(349,324)"/>
<path d="M0 0 C1.32 0.66 2.64 1.32 4 2 C3.34 2 2.68 2 2 2 C2 2.99 2 3.98 2 5 C0.35 5.33 -1.3 5.66 -3 6 C-3 5.34 -3 4.68 -3 4 C-2.34 3.67 -1.68 3.34 -1 3 C-0.67 2.01 -0.34 1.02 0 0 Z " fill="#1B273C" transform="translate(372,270)"/>
</svg>
